<svg height="512pt" viewBox="-126 0 512 512" width="512pt" xmlns="http://www.w3.org/2000/svg"><path d="m68.339844 93.574219 8.445312 8.445312v52.070313h15v-47.675782h16.851563v-15h-21.242188l-4.054687-4.050781v-28.429687h93.113281v28.429687l-8.445313 8.445313v58.28125h15v-52.070313l8.445313-8.445312v-34.640625h5.148437v-48.203125l-10.726562-10.730469h-111.957031l-10.726563 10.730469v48.203125h5.148438zm9.851562-76.632813 1.941406-1.941406h99.527344l1.941406 1.941406v26.992188h-14.679687v-11.898438h-15v11.898438h-14.523437v-11.898438h-15v11.898438h-14.527344v-11.898438h-15v11.898438h-14.679688zm0 0"/><path d="m213.507812 166.589844h-167.222656c-25.519531 0-46.285156 20.761718-46.285156 46.285156v269.929688c0 16.097656 13.097656 29.195312 29.195312 29.195312h201.40625c16.097657 0 29.195313-13.097656 29.195313-29.195312v-269.929688c-.003906-25.523438-20.765625-46.285156-46.289063-46.285156zm31.285157 316.214844c0 7.828124-6.367188 14.195312-14.195313 14.195312h-201.402344c-7.828124 0-14.195312-6.367188-14.195312-14.195312v-269.929688c0-17.253906 14.035156-31.285156 31.285156-31.285156h167.222656c17.25 0 31.285157 14.03125 31.285157 31.285156zm0 0"/><path d="m23.171875 387.027344h213.449219v-62.4375h-213.449219zm15-47.4375h183.449219v32.4375h-183.449219zm0 0"/><path d="m205.933594 433.359375c-10.429688 2.710937-18.660156 10.941406-21.371094 21.371094h-109.332031c-2.710938-10.429688-10.941407-18.660157-21.371094-21.371094v-33.832031h-15v47.875h7.5c8.175781 0 14.828125 6.652344 14.828125 14.828125v7.5h137.417969v-7.5c0-8.175781 6.652343-14.828125 14.828125-14.828125h7.5v-47.875h-15zm0 0"/><path d="m53.859375 278.257812c10.429687-2.710937 18.660156-10.941406 21.371094-21.371093h6.960937c3.769532 22.929687 23.726563 40.480469 47.707032 40.480469 23.980468 0 43.9375-17.550782 47.703124-40.480469h6.960938c2.710938 10.429687 10.941406 18.660156 21.371094 21.371093v33.835938h15v-47.878906h-7.5c-8.175782 0-14.828125-6.652344-14.828125-14.828125v-7.5h-20.890625c-3.460938-23.285157-23.585938-41.207031-47.816406-41.207031-24.234376 0-44.359376 17.921874-47.820313 41.207031h-20.890625v7.5c0 8.175781-6.652344 14.828125-14.828125 14.828125h-7.5v47.878906h15zm76.039063-62.578124c18.382812 0 33.339843 14.957031 33.339843 33.34375 0 18.386718-14.957031 33.34375-33.339843 33.34375-18.386719 0-33.34375-14.957032-33.34375-33.34375 0-18.382813 14.957031-33.34375 33.34375-33.34375zm0 0"/><path d="m234.796875 256h-15v-43.125c0-3.035156-2.164063-5.636719-5.148437-6.183594l2.707031-14.753906c10.105469 1.851562 17.441406 10.660156 17.441406 20.9375zm-28.78125-49.410156h-15v-15h15zm-25 0h-15v-15h15zm0 0"/><path d="m129.898438 272.355469c-5.980469 0-11.957032-2.273438-16.507813-6.824219l10.605469-10.605469c3.253906 3.25 8.546875 3.253907 11.800781 0 1.570313-1.574219 2.4375-3.667969 2.4375-5.902343 0-2.234376-.867187-4.328126-2.4375-5.898438l10.605469-10.605469c4.40625 4.402344 6.832031 10.265625 6.832031 16.503907 0 6.242187-2.425781 12.105468-6.832031 16.507812-4.550782 4.546875-10.527344 6.824219-16.503906 6.824219zm0 0"/><path d="m158.007812 159.304688h-15v-27.292969h15zm0-37.292969h-15v-15h15zm0-25h-15v-15h15zm0 0"/><path d="m193.121094 412.027344h-22.84375v-15h22.84375zm-32.84375 0h-15v-15h15zm-25 0h-15v-15h15zm0 0"/></svg>