<svg height="512pt" viewBox="-126 0 512 512" width="512pt" xmlns="http://www.w3.org/2000/svg"><path d="m189.105469 51.433594h-118.414063v-37.597656c2.472656-2.476563 3.859375-3.863282 6.332032-6.335938h105.746093c2.472657 2.472656 3.859375 3.859375 6.332031 6.335938v37.597656zm0 0" fill="#787680"/><path d="m175.507812 174.089844v-75.175782c3.296876-3.296874 5.148438-5.148437 8.445313-8.445312v-39.035156h-108.113281v39.035156c3.296875 3.296875 5.148437 5.148438 8.445312 8.445312v75.171876h91.222656zm0 0" fill="#787680"/><path d="m89.898438 174.089844h-43.613282c-21.421875 0-38.785156 17.363281-38.785156 38.785156v269.929688c0 11.980468 9.710938 21.695312 21.695312 21.695312h201.402344c11.984375 0 21.695313-9.714844 21.695313-21.695312v-269.929688c0-21.421875-17.363281-38.785156-38.785157-38.785156zm0 0" fill="#ffb655"/><path d="m243.433594 332.089844v-60.375c-12.332032 0-22.328125-9.996094-22.328125-22.328125h-20.367188v.003906c0-.121094 0-.246094 0-.367187 0-22.558594-18.285156-40.84375-40.839843-40.84375-22.558594 0-40.84375 18.285156-40.84375 40.84375v.363281h-20.367188c0 12.328125-9.996094 22.324219-22.328125 22.324219v60.378906h-15.6875v47.433594h15.6875v60.378906c12.332031 0 22.328125 9.996094 22.328125 22.328125h122.417969c0-12.332031 9.996093-22.328125 22.328125-22.328125v-60.378906h8.859375v-47.433594zm0 0" fill="#ff7956"/><path d="m170.738281 249.023438c0 22.558593-18.285156 40.84375-40.839843 40.84375-22.558594 0-40.84375-18.285157-40.84375-40.84375 0-22.554688 18.285156-40.84375 40.84375-40.84375 22.554687 0 40.839843 18.289062 40.839843 40.84375zm0 0" fill="#c6c5ca"/><path d="m30.671875 332.089844h198.449219v47.4375h-198.449219zm0 0" fill="#fff"/><path d="m46.359375 332.089844v-60.375c12.332031 0 22.328125-9.996094 22.328125-22.328125h20.367188c.195312 22.390625 18.40625 40.480469 40.84375 40.480469 22.433593 0 40.644531-18.089844 40.839843-40.480469h20.367188c0 12.332031 9.996093 22.328125 22.328125 22.328125v60.375zm0 47.4375v60.378906c12.332031 0 22.328125 9.996094 22.328125 22.324219h122.417969c0-12.328125 9.996093-22.324219 22.328125-22.324219v-60.378906zm0 0" fill="#787680"/><path d="m107.023438 7.5h-30c-2.472657 2.472656-3.859376 3.859375-6.332032 6.335938v37.597656h30v-37.597656c2.472656-2.476563 3.859375-3.863282 6.332032-6.335938zm0 0" fill="#57565c"/><path d="m105.839844 90.46875v-39.035156h-30v39.035156c3.296875 3.296875 5.148437 5.148438 8.445312 8.445312v75.171876h30v-75.171876c-3.296875-3.296874-5.144531-5.148437-8.445312-8.445312zm0 0" fill="#57565c"/><path d="m37.5 482.804688v-269.929688c0-21.421875 17.363281-38.785156 38.785156-38.785156h-30c-21.421875 0-38.785156 17.363281-38.785156 38.785156v269.929688c0 11.980468 9.710938 21.695312 21.695312 21.695312h30c-11.980468 0-21.695312-9.714844-21.695312-21.695312zm0 0" fill="#ff7956"/><path d="m119.054688 249.023438c0-17.261719 10.707031-32.019532 25.84375-38-4.644532-1.835938-9.707032-2.84375-15-2.84375-22.558594 0-40.84375 18.285156-40.84375 40.84375 0 22.554687 18.285156 40.84375 40.84375 40.84375 5.292968 0 10.355468-1.007813 15-2.84375-15.136719-5.976563-25.84375-20.738282-25.84375-38zm0 0" fill="#898890"/><path d="m30.671875 332.089844h30v47.4375h-30zm0 0" fill="#d8d7da"/><path d="m159.898438 289.867188c16.878906 0 31.367187-10.242188 37.589843-24.851563-3.945312-4.027344-6.382812-9.542969-6.382812-15.628906h-20.367188c-.148437 17.105469-10.8125 31.699219-25.839843 37.636719 4.640624 1.835937 9.703124 2.84375 15 2.84375zm0 0" fill="#57565c"/><path d="m76.359375 439.90625v-60.378906h-30v60.378906c12.332031 0 22.328125 9.996094 22.328125 22.324219h30c0-12.328125-9.996094-22.324219-22.328125-22.324219zm0 0" fill="#57565c"/><path d="m76.359375 271.714844c6.246094 0 11.894531-2.566406 15.945313-6.699219-2.046876-4.804687-3.199219-10.085937-3.246094-15.628906h-20.371094c0 12.332031-9.996094 22.328125-22.328125 22.328125v60.378906h30zm0 0" fill="#57565c"/><path d="m68.339844 93.574219 8.445312 8.445312v52.070313h15v-47.675782h16.851563v-15h-21.242188l-4.054687-4.050781v-28.429687h93.113281v28.429687l-8.445313 8.445313v58.28125h15v-52.070313l8.445313-8.445312v-34.640625h5.148437v-48.203125l-10.726562-10.730469h-111.957031l-10.726563 10.730469v48.203125h5.148438zm9.851562-76.632813 1.941406-1.941406h99.527344l1.941406 1.941406v26.992188h-14.679687v-11.898438h-15v11.898438h-14.523437v-11.898438h-15v11.898438h-14.527344v-11.898438h-15v11.898438h-14.679688zm0 0"/><path d="m213.507812 166.589844h-167.222656c-25.519531 0-46.285156 20.761718-46.285156 46.285156v269.929688c0 16.097656 13.097656 29.195312 29.195312 29.195312h201.40625c16.097657 0 29.195313-13.097656 29.195313-29.195312v-269.929688c-.003906-25.523438-20.765625-46.285156-46.289063-46.285156zm31.285157 316.214844c0 7.828124-6.367188 14.195312-14.195313 14.195312h-201.402344c-7.828124 0-14.195312-6.367188-14.195312-14.195312v-269.929688c0-17.253906 14.035156-31.285156 31.285156-31.285156h167.222656c17.25 0 31.285157 14.03125 31.285157 31.285156zm0 0"/><path d="m23.171875 387.027344h213.449219v-62.4375h-213.449219zm15-47.4375h183.449219v32.4375h-183.449219zm0 0"/><path d="m205.933594 433.359375c-10.429688 2.710937-18.660156 10.941406-21.371094 21.371094h-109.332031c-2.710938-10.429688-10.941407-18.660157-21.371094-21.371094v-33.832031h-15v47.875h7.5c8.175781 0 14.828125 6.652344 14.828125 14.828125v7.5h137.417969v-7.5c0-8.175781 6.652343-14.828125 14.828125-14.828125h7.5v-47.875h-15zm0 0"/><path d="m53.859375 278.257812c10.429687-2.710937 18.660156-10.941406 21.371094-21.371093h6.960937c3.769532 22.929687 23.726563 40.480469 47.707032 40.480469 23.980468 0 43.9375-17.550782 47.703124-40.480469h6.960938c2.710938 10.429687 10.941406 18.660156 21.371094 21.371093v33.835938h15v-47.878906h-7.5c-8.175782 0-14.828125-6.652344-14.828125-14.828125v-7.5h-20.890625c-3.460938-23.285157-23.585938-41.207031-47.816406-41.207031-24.234376 0-44.359376 17.921874-47.820313 41.207031h-20.890625v7.5c0 8.175781-6.652344 14.828125-14.828125 14.828125h-7.5v47.878906h15zm76.039063-62.578124c18.382812 0 33.339843 14.957031 33.339843 33.34375 0 18.386718-14.957031 33.34375-33.339843 33.34375-18.386719 0-33.34375-14.957032-33.34375-33.34375 0-18.382813 14.957031-33.34375 33.34375-33.34375zm0 0"/><g fill="#fff"><path d="m234.796875 256h-15v-43.125c0-3.035156-2.164063-5.636719-5.148437-6.183594l2.707031-14.753906c10.105469 1.851562 17.441406 10.660156 17.441406 20.9375zm-28.78125-49.410156h-15v-15h15zm-25 0h-15v-15h15zm0 0"/><path d="m129.898438 272.355469c-5.980469 0-11.957032-2.273438-16.507813-6.824219l10.605469-10.605469c3.253906 3.25 8.546875 3.253907 11.800781 0 1.570313-1.574219 2.4375-3.667969 2.4375-5.902343 0-2.234376-.867187-4.328126-2.4375-5.898438l10.605469-10.605469c4.40625 4.402344 6.832031 10.265625 6.832031 16.503907 0 6.242187-2.425781 12.105468-6.832031 16.507812-4.550782 4.546875-10.527344 6.824219-16.503906 6.824219zm0 0"/><path d="m158.007812 159.304688h-15v-27.292969h15zm0-37.292969h-15v-15h15zm0-25h-15v-15h15zm0 0"/><path d="m193.121094 412.027344h-22.84375v-15h22.84375zm-32.84375 0h-15v-15h15zm-25 0h-15v-15h15zm0 0"/></g></svg>