<svg height="512pt" viewBox="-111 0 512 512" width="512pt" xmlns="http://www.w3.org/2000/svg"><path d="m7.496094 92.496094h275.101562v329h-275.101562zm0 0" fill="#91dc5a"/><path d="m258.550781 253.882812v-60.359374c-12.328125 0-22.324219-9.992188-22.324219-22.320313h-20.359374c0-.121094 0-.238281 0-.363281 0-22.546875-18.277344-40.828125-40.828126-40.828125-22.550781 0-40.832031 18.28125-40.832031 40.828125 0 .121094.003907.242187.003907.363281h-20.363282c0 12.328125-9.992187 22.320313-22.320312 22.320313v60.359374h-15.683594v47.417969h15.683594v60.359375c12.328125 0 22.320312 9.992188 22.320312 22.320313h122.378906c0-12.328125 9.996094-22.320313 22.324219-22.320313v-60.359375h15.679688v-47.417969zm0 0" fill="#4cba68"/><path d="m282.597656 92.496094-31.816406-56.210938h4.746094c4.789062 0 8.667968-3.882812 8.667968-8.667968v-11.453126c0-4.785156-3.878906-8.667968-8.667968-8.667968h-220.96875c-4.785156 0-8.664063 3.882812-8.664063 8.667968v11.453126c0 4.785156 3.878907 8.667968 8.664063 8.667968h4.757812l-31.820312 56.210938zm0 0" fill="#e0e0e2"/><path d="m262.867188 477.710938h-235.636719l-19.734375-56.214844h275.101562zm0 0" fill="#e0e0e2"/><path d="m43.144531 477.710938h203.808594v26.792968h-203.808594zm0 0" fill="#e0e0e2"/><path d="m185.878906 170.84375c0 22.546875-18.28125 40.828125-40.832031 40.828125-22.546875 0-40.828125-18.28125-40.828125-40.828125 0-22.550781 18.28125-40.832031 40.828125-40.832031 22.550781 0 40.832031 18.28125 40.832031 40.832031zm0 0" fill="#ffe477"/><path d="m45.855469 253.882812h198.386719v47.417969h-198.386719zm0 0" fill="#fff"/><path d="m61.539062 253.882812v-60.359374c12.324219 0 22.320313-9.992188 22.320313-22.320313h20.359375c.195312 22.382813 18.402344 40.46875 40.828125 40.46875 22.429687 0 40.632813-18.085937 40.828125-40.46875h20.363281c0 12.328125 9.992188 22.320313 22.320313 22.320313v60.359374zm0 47.421876v60.355468c12.324219 0 22.320313 9.996094 22.320313 22.320313h122.378906c0-12.324219 9.992188-22.320313 22.320313-22.320313v-60.355468zm0 0" fill="#ffb655"/><path d="m7.496094 92.496094h29.992187v329h-29.992187zm0 0" fill="#4cba68"/><path d="m64.550781 36.285156c-4.789062 0-8.667969-3.882812-8.667969-8.667968v-11.453126c0-4.785156 3.878907-8.667968 8.667969-8.667968h-29.992187c-4.785156 0-8.664063 3.882812-8.664063 8.667968v11.453126c0 4.785156 3.878907 8.667968 8.664063 8.667968h4.757812l-31.820312 56.210938h29.992187l31.816407-56.210938zm0 0" fill="#c6c5ca"/><path d="m7.496094 421.496094 19.734375 56.214844h29.988281l-19.730469-56.214844zm0 0" fill="#c6c5ca"/><path d="m43.144531 477.710938h29.988281v26.792968h-29.988281zm0 0" fill="#c6c5ca"/><path d="m134.207031 170.839844c0-17.253906 10.707031-32.007813 25.835938-37.988282-4.640625-1.832031-9.699219-2.839843-14.996094-2.839843-22.546875 0-40.828125 18.277343-40.828125 40.828125 0 22.550781 18.28125 40.832031 40.828125 40.832031 5.296875 0 10.355469-1.007813 14.996094-2.84375-15.128907-5.976563-25.835938-20.730469-25.835938-37.988281zm0 0" fill="#ffb655"/><path d="m45.855469 253.882812h29.988281v47.417969h-29.988281zm0 0" fill="#d8d7da"/><path d="m91.527344 193.523438c6.246094 0 11.890625-2.5625 15.941406-6.695313-2.046875-4.804687-3.199219-10.082031-3.25-15.625h-20.359375c0 12.328125-9.996094 22.320313-22.320313 22.320313v60.359374h29.988282zm0 0" fill="#ff7956"/><path d="m175.039062 211.671875c16.875 0 31.359376-10.238281 37.578126-24.84375-3.945313-4.027344-6.378907-9.539063-6.378907-15.625h-20.363281c-.148438 17.101563-10.808594 31.691406-25.832031 37.628906 4.644531 1.832031 9.699219 2.839844 14.996093 2.839844zm0 0" fill="#ff7956"/><path d="m91.527344 361.660156v-60.355468h-29.988282v60.355468c12.324219 0 22.320313 9.996094 22.320313 22.320313h29.988281c0-12.324219-9.992187-22.320313-22.320312-22.320313zm0 0" fill="#ff7956"/><path d="m262.691406 42.105469c5.328125-2.644531 9-8.144531 9-14.488281v-11.453126c0-8.914062-7.25-16.164062-16.160156-16.164062h-220.972656c-8.910156 0-16.164063 7.25-16.164063 16.164062v11.453126c0 6.34375 3.675781 11.847656 9.007813 14.492187l-27.402344 48.414063v332.25l21.914062 62.433593h13.730469v26.792969h218.804688v-26.792969h13.734375l21.914062-62.433593v-332.25zm-23.234375 454.898437h-188.816406v-11.796875h188.816406zm18.09375-26.792968h-225.007812l-17.550781-49.996094v-325.742188l28.695312-50.691406h101.535156v-14.996094h-110.664062c-.644532 0-1.167969-.523437-1.167969-1.167968v-11.453126c0-.644531.523437-1.167968 1.167969-1.167968h220.972656c.644531 0 1.167969.523437 1.167969 1.167968v11.453126c0 .644531-.523438 1.167968-1.167969 1.167968h-17.609375l31.820313 56.214844h-232.253907v14.996094h237.613281v314h-237.613281v14.996094h234.53125zm0 0"/><path d="m251.738281 246.386719h-213.382812v62.414062h213.382812zm-14.992187 47.417969h-183.394532v-32.425782h183.390626v32.425782zm0 0"/><path d="m221.058594 355.117188c-10.425782 2.710937-18.652344 10.9375-21.363282 21.367187h-109.292968c-2.710938-10.429687-10.9375-18.65625-21.367188-21.367187v-33.820313h-14.996094v47.863281h7.5c8.171876 0 14.820313 6.648438 14.820313 14.820313v7.496093h137.375v-7.496093c0-8.171875 6.648437-14.820313 14.824219-14.820313h7.496094v-47.863281h-14.996094zm0 0"/><path d="m69.035156 200.066406c10.429688-2.710937 18.65625-10.9375 21.367188-21.363281h6.957031c3.765625 22.921875 23.714844 40.46875 47.6875 40.46875s43.925781-17.546875 47.691406-40.46875h6.957031c2.710938 10.425781 10.9375 18.652344 21.363282 21.363281v33.824219h14.996094v-47.863281h-7.496094c-8.175782 0-14.824219-6.648438-14.824219-14.824219v-7.496094h-20.886719c-3.457031-23.277343-23.574218-41.191406-47.800781-41.191406-24.222656 0-44.339844 17.914063-47.800781 41.191406h-20.886719v7.496094c0 8.175781-6.648437 14.824219-14.820313 14.824219h-7.5v47.863281h14.996094zm76.011719-62.554687c18.382813 0 33.335937 14.949219 33.335937 33.332031 0 18.378906-14.953124 33.332031-33.335937 33.332031-18.378906 0-33.332031-14.953125-33.332031-33.332031 0-18.382812 14.953125-33.332031 33.332031-33.332031zm0 0"/><g fill="#fff"><path d="m265.105469 228.640625h-14.996094v-61.167969h14.996094zm0-71.164063h-14.996094v-14.996093h14.996094zm0-24.992187h-14.996094v-14.996094h14.996094zm0 0"/><path d="m244.300781 75.003906h-54.695312v-14.996094h54.695312zm-64.691406 0h-14.996094v-14.996094h14.996094zm-24.992187 0h-14.996094v-14.996094h14.996094zm0 0"/><path d="m145.046875 194.167969c-5.976563 0-11.949219-2.273438-16.5-6.824219l10.601563-10.605469c3.253906 3.253907 8.546874 3.253907 11.796874 0 3.25-3.25 3.25-8.542969 0-11.792969l10.601563-10.601562c9.101563 9.097656 9.097656 23.902344 0 33-4.546875 4.550781-10.523437 6.824219-16.5 6.824219zm0 0"/><path d="m208.253906 333.792969h-22.839844v-14.996094h22.839844zm-32.835937 0h-14.996094v-14.996094h14.996094zm-24.992188 0h-14.996093v-14.996094h14.996093zm0 0"/></g></svg>